# xmcd
#
# Track frame offsets:
#	182
#	16807
#	41257
#	55207
#	72682
#	90007
#	103732
#	121282
#	133057
#	155182
#	172507
#	192232
#
# Disc length: 2794 seconds
#
# Revision: 1
# Processed by: cddbd v1.5.2PL0 Copyright (c) Steve Scherf et al.
# Submitted via: audiograbber 1.82.02
#
DISCID=960ae80c
DTITLE=Brian Letton - The Man From WA
DYEAR=2003
DGENRE=Country
TTITLE0=I'm Aussie All Over
TTITLE1=Nobody,s Queen
TTITLE2=I'm Back In The Doghouse
TTITLE3=Song Of The River
TTITLE4=Eight O'Clock Blues
TTITLE5=I'm Movin' On
TTITLE6=When We First Fell In Love
TTITLE7=My Bushland Home
TTITLE8=Somebody Cares
TTITLE9=Sounds Of The Bush
TTITLE10=One, Two, Three Waltz
TTITLE11=The Place That I Call Home
EXTD=
EXTT0=
EXTT1=
EXTT2=
EXTT3=
EXTT4=
EXTT5=
EXTT6=
EXTT7=
EXTT8=
EXTT9=
EXTT10=
EXTT11=
PLAYORDER=
